<svg width="19" height="18" viewBox="0 0 19 18" fill="none" xmlns="http://www.w3.org/2000/svg">
<path fill-rule="evenodd" clip-rule="evenodd" d="M8.54 2C5.2042 2 2.5 4.7042 2.5 8.04C2.5 11.3758 5.2042 14.08 8.54 14.08C11.8758 14.08 14.58 11.3758 14.58 8.04C14.58 4.7042 11.8758 2 8.54 2ZM16.58 8.04C16.58 9.89977 15.9486 11.612 14.8884 12.9741L18.2071 16.2929C18.5976 16.6834 18.5976 17.3166 18.2071 17.7071C17.8166 18.0976 17.1834 18.0976 16.7929 17.7071L13.4741 14.3884C12.112 15.4486 10.3998 16.08 8.54 16.08C4.09963 16.08 0.5 12.4804 0.5 8.04C0.5 3.59963 4.09963 0 8.54 0C12.9804 0 16.58 3.59963 16.58 8.04Z" fill="#1D35D7"/>
</svg>
