<svg width="45" height="38" viewBox="0 0 45 38" fill="none" xmlns="http://www.w3.org/2000/svg">
<path d="M24.356 11.5858C23.4937 11.209 22.5412 11 21.54 11C17.6519 11 14.5 14.1519 14.5 18.04C14.5 21.9281 17.6519 25.08 21.54 25.08C25.4281 25.08 28.58 21.9281 28.58 18.04C28.58 16.1612 27.844 14.4542 26.6446 13.1918M26.66 23.16L30.5 27M28.58 18.04C28.58 21.9281 25.4281 25.08 21.54 25.08C17.6519 25.08 14.5 21.9281 14.5 18.04C14.5 14.1519 17.6519 11 21.54 11C25.4281 11 28.58 14.1519 28.58 18.04Z" stroke="#1D35D7" stroke-width="2" stroke-linecap="round"/>
</svg>
